<?xml version="1.0" standalone="no"?><!DOCTYPE svg PUBLIC "-//W3C//DTD SVG 1.1//EN" "http://www.w3.org/Graphics/SVG/1.1/DTD/svg11.dtd"><svg t="1651405680079" class="icon" viewBox="0 0 1025 1024" version="1.1" xmlns="http://www.w3.org/2000/svg" p-id="2170" xmlns:xlink="http://www.w3.org/1999/xlink" width="200.1953125" height="200"><defs><style type="text/css">@font-face { font-family: feedback-iconfont; src: url("//at.alicdn.com/t/font_1031158_u69w8yhxdu.woff2?t=1630033759944") format("woff2"), url("//at.alicdn.com/t/font_1031158_u69w8yhxdu.woff?t=1630033759944") format("woff"), url("//at.alicdn.com/t/font_1031158_u69w8yhxdu.ttf?t=1630033759944") format("truetype"); }
</style></defs><path d="M945.493333 1024c-6.826667 0-13.653333 0-23.893333-3.413333-23.893333-6.826667-47.786667-20.48-64.853333-37.546667l-296.96-331.093333C505.173333 699.733333 443.733333 716.8 358.4 716.8 160.426667 716.8 0 556.373333 0 358.4S160.426667 0 358.4 0 716.8 160.426667 716.8 358.4c0 85.333333-17.066667 146.773333-61.44 201.386667l331.093333 296.96c30.72 30.72 61.44 98.986667 17.066667 143.36-17.066667 17.066667-34.133333 23.893333-58.026667 23.893333zM563.2 614.4c3.413333 0 10.24 3.413333 13.653333 6.826667l307.2 341.333333c13.653333 13.653333 30.72 23.893333 47.786667 27.306667 20.48 3.413333 34.133333 0 47.786667-10.24 23.893333-23.893333 6.826667-71.68-17.066667-95.573334l-341.333333-307.2c-6.826667-6.826667-6.826667-17.066667 0-23.893333 44.373333-54.613333 64.853333-112.64 64.853333-194.56C682.666667 180.906667 535.893333 34.133333 358.4 34.133333S34.133333 180.906667 34.133333 358.4 180.906667 682.666667 358.4 682.666667c81.92 0 139.946667-20.48 194.56-64.853334 3.413333-3.413333 6.826667-3.413333 10.24-3.413333z" fill="" p-id="2171"></path><path d="M512 477.866667h-51.2c-10.24 0-17.066667-6.826667-17.066667-17.066667v-204.8c0-10.24 6.826667-17.066667 17.066667-17.066667H512c37.546667 0 68.266667 30.72 68.266667 68.266667 0 20.48-10.24 37.546667-23.893334 51.2 13.653333 13.653333 23.893333 30.72 23.893334 51.2 0 37.546667-30.72 68.266667-68.266667 68.266667z m-34.133333-34.133334h34.133333c20.48 0 34.133333-13.653333 34.133333-34.133333s-13.653333-34.133333-34.133333-34.133333h-34.133333v68.266666z m0-102.4h34.133333c20.48 0 34.133333-13.653333 34.133333-34.133333s-13.653333-34.133333-34.133333-34.133333h-34.133333v68.266666zM170.666667 477.866667c-37.546667 0-68.266667-30.72-68.266667-68.266667 0-10.24 6.826667-17.066667 17.066667-17.066667s17.066667 6.826667 17.066666 17.066667c0 20.48 13.653333 34.133333 34.133334 34.133333s34.133333-13.653333 34.133333-34.133333c0-10.24 6.826667-17.066667 17.066667-17.066667s17.066667 6.826667 17.066666 17.066667c0 37.546667-30.72 68.266667-68.266666 68.266667z" fill="" p-id="2172"></path><path d="M221.866667 426.666667c-10.24 0-17.066667-6.826667-17.066667-17.066667V256c0-10.24 6.826667-17.066667 17.066667-17.066667s17.066667 6.826667 17.066666 17.066667V409.6c0 10.24-6.826667 17.066667-17.066666 17.066667zM341.333333 477.866667c-37.546667 0-68.266667-30.72-68.266666-68.266667V307.2c0-37.546667 30.72-68.266667 68.266666-68.266667s68.266667 30.72 68.266667 68.266667v102.4c0 37.546667-30.72 68.266667-68.266667 68.266667z m0-204.8c-20.48 0-34.133333 17.066667-34.133333 34.133333v102.4c0 20.48 13.653333 34.133333 34.133333 34.133333s34.133333-13.653333 34.133334-34.133333V307.2c0-17.066667-13.653333-34.133333-34.133334-34.133333z" fill="" p-id="2173"></path></svg>